# xmcd CD database file
#
# Track frame offsets:
#	150
#	12625
#	25623
#	39700
#	52539
#	64669
#	76137
#	86535
#	99501
#	110246
#	122472
#	135660
#	148074
#	161528
#	173141
#	186490
#	200158
#
# Disc length: 2875 seconds
#
# Revision: 0
# Processed by: cddbd v1.5.2PL0 Copyright (c) Steve Scherf et al.
# Submitted via: CDex 1.70beta2
#
DISCID=e50b3911
DTITLE=Various Artist - Country Roots - CD 10
DYEAR=2007
DGENRE=Country Classics
TTITLE0=Tex Ritter - High Noon (Do Not Forsake Me)
TTITLE1=Red Foley And Ernest Tubb - Tennessee Border No.2
TTITLE2=Jimmie Rodgers - I'm Lonely And Blue
TTITLE3=The Carter Family - Little Log Cabin
TTITLE4=The Carter Family - Happy Or Lonesome
TTITLE5=Roy Acuff - Fireball Mail
TTITLE6=Bill Haley And His Comets - Farewell, So Long, Goodbye
TTITLE7=Roy Acuff And Kitty Wells - Mother Hold Me Tight
TTITLE8=Hank Williams - Moanin' The Blues
TTITLE9=Gene Autry - Sioux City Sue
TTITLE10=Gene Autry - Cowboy Night Herd Song
TTITLE11=Hank Williams - Rootie Tootie
TTITLE12=Merle Travis - Divorse Me
TTITLE13=Roy Acuff - Wabash Cannonball
TTITLE14=Gene Autry - I'll Go Ridin' Down
TTITLE15=Bob Wills - Faded Love
TTITLE16=The Carter Family - Poor Orphan Child
EXTD=YEAR: 2007
EXTT0=
EXTT1=
EXTT2=
EXTT3=
EXTT4=
EXTT5=
EXTT6=
EXTT7=
EXTT8=
EXTT9=
EXTT10=
EXTT11=
EXTT12=
EXTT13=
EXTT14=
EXTT15=
EXTT16=
PLAYORDER=
